# xmcd CD database file
#
# Track frame offsets:
#	150
#	18060
#	35155
#	55792
#	69805
#	81539
#	96351
#	109909
#	125260
#	138419
#	152577
#
# Disc length: 2267 seconds
#
# Revision: 0
# Processed by: cddbd v1.5.1PL2 Copyright (c) Steve Scherf et al.
# Submitted via: CDex 1.51
#
DISCID=8c08d90b
DTITLE=OAGEE NORDHEIM - JUST ME
DYEAR=2006
DGENRE=Country
TTITLE0=ALONE
TTITLE1=ANOTHER DAY OF MISSING YOU
TTITLE2=I'D LIKE TO THANK SOMEONE
TTITLE3=I'M GONNA LOVE HER LIKE THERE'S NO TOMORROW
TTITLE4=NO BACK AGAINST THE WALL
TTITLE5=NO GREATER LOVE
TTITLE6=OUT OF RANGE
TTITLE7=SCARED
TTITLE8=WORDS
TTITLE9=IF I WERE A CARPENTER
TTITLE10=WHEN YOU SAY NOTHING AT ALL
EXTD=YEAR: 2006
EXTT0=
EXTT1=
EXTT2=
EXTT3=
EXTT4=
EXTT5=
EXTT6=
EXTT7=
EXTT8=
EXTT9=
EXTT10=
PLAYORDER=
